<svg xmlns="http://www.w3.org/2000/svg" viewBox="0 0 200 48" fill="none">
  
  <rect x="1" y="1" width="46" height="46" rx="10" stroke="#16240F" stroke-width="1.5"></rect>
  
  <circle cx="24" cy="24" r="2.5" fill="#16240F"></circle>
  <path d="M17.5 24 C17.5 20 20.5 17 24 17 C27.5 17 30.5 20 30.5 24 C30.5 27 28.5 29.5 26 30.5" stroke="#16240F" stroke-width="1.3" stroke-linecap="round" fill="none"></path>
  <path d="M14 24 C14 16.8 18.3 12 24 12 C29.7 12 34 16.8 34 24 C34 28.5 31.5 32.5 27.5 34.5" stroke="#16240F" stroke-width="1.3" stroke-linecap="round" fill="none"></path>
  <path d="M10.5 24 C10.5 13.5 16.5 8 24 8 C31.5 8 37.5 13.5 37.5 24 C37.5 30 34 36 28.5 38.5" stroke="#16240F" stroke-width="1.3" stroke-linecap="round" fill="none"></path>
  
  <text x="58" y="30" font-family="Inter, sans-serif" font-size="16" font-weight="400" letter-spacing="-0.02em" fill="#16240F">authenticator</text>
</svg>