<svg xmlns="http://www.w3.org/2000/svg" viewBox="0 0 200 48" fill="none">
  <rect x="6" y="6" width="36" height="36" rx="8" stroke="#AECA59" stroke-width="1.5"></rect>
  <circle cx="24" cy="24" r="2" fill="#AECA59"></circle>
  <path d="M19 24 C19 21 21.5 18.7 24 18.7 C26.5 18.7 29 21 29 24 C29 26.3 27.5 28.2 25.5 29" stroke="#AECA59" stroke-width="1.2" stroke-linecap="round" fill="none"></path>
  <path d="M16.3 24 C16.3 18.5 19.7 14.7 24 14.7 C28.3 14.7 31.7 18.5 31.7 24 C31.7 27.5 29.7 30.6 26.7 32.2" stroke="#AECA59" stroke-width="1.2" stroke-linecap="round" fill="none"></path>
  <path d="M13.6 24 C13.6 15.7 18.2 11.5 24 11.5 C29.8 11.5 34.4 15.7 34.4 24 C34.4 28.7 31.7 33.4 27.5 35.4" stroke="#AECA59" stroke-width="1.2" stroke-linecap="round" fill="none"></path>
  <text x="52" y="32" font-family="Inter, sans-serif" font-size="22" font-weight="600" letter-spacing="-0.02em" fill="#E2EDD0">authenticator</text>
</svg>
